<?xml version="1.0" encoding="utf-8"?><svg viewBox="0 0 147 60" xmlns="http://www.w3.org/2000/svg" xmlns:xlink="http://www.w3.org/1999/xlink"><style>:root>svg{display:none}:root>svg:target{display:block}</style><svg fill="none" viewBox="0 0 58 58" id="adv-1" xmlns="http://www.w3.org/2000/svg"><path d="M53.94 32.505l-1.502-6.008a.908.908 0 00.718-.888v-.969a3.819 3.819 0 00-3.814-3.814h-6.84v-1.998a1.879 1.879 0 00-1.878-1.877h-12.72l7.73-3.092a.908.908 0 00-.675-1.686l-6.33 2.531c1.93-1.237 3.838-2.599 4.564-3.552a4.234 4.234 0 00-.798-5.927 4.234 4.234 0 00-5.928.798c-1.033 1.355-2.397 5.162-3.28 7.845-.882-2.682-2.245-6.49-3.278-7.845a4.234 4.234 0 00-5.928-.798 4.234 4.234 0 00-.798 5.928c.726.952 2.634 2.314 4.563 3.551l-6.33-2.531a.908.908 0 10-.674 1.686l7.73 3.092H5.752a1.879 1.879 0 00-1.877 1.877v16.468a.908.908 0 001.816 0V18.828a.06.06 0 01.06-.06h34.873a.06.06 0 01.06.06v16.468a.908.908 0 001.817 0v-1.03h10.718a2.971 2.971 0 012.822 2.06h-2.824a.908.908 0 00-.908.907v1.938a2.849 2.849 0 002.845 2.845h1.03v3.996h-2.375a5.76 5.76 0 00-5.435-3.875 5.76 5.76 0 00-5.436 3.875h-.437V39.17a.908.908 0 00-1.816 0v6.842H21.843a5.76 5.76 0 00-5.436-3.875 5.76 5.76 0 00-5.435 3.875h-5.22a.06.06 0 01-.061-.06v-1.999h3.935a.908.908 0 000-1.816H.908a.908.908 0 100 1.816h2.967v1.998c0 1.035.842 1.877 1.877 1.877h4.905l-.001.06a5.758 5.758 0 005.751 5.752 5.758 5.758 0 005.752-5.751l-.002-.06h20.466l-.001.06a5.758 5.758 0 005.752 5.751 5.758 5.758 0 005.751-5.751l-.002-.06h2.969a.908.908 0 00.908-.91v-9.686a4.79 4.79 0 00-4.06-4.728zM19.586 13.714c-3.582-2.226-4.644-3.25-4.96-3.663a2.416 2.416 0 01.456-3.382 2.41 2.41 0 013.382.455c.879 1.152 2.255 5.03 3.163 7.823a99.872 99.872 0 01-2.04-1.233zm5.163 1.233c.908-2.794 2.284-6.67 3.162-7.823a2.416 2.416 0 013.382-.455 2.416 2.416 0 01.456 3.382c-.315.412-1.377 1.437-4.96 3.663-.722.45-1.427.872-2.04 1.233zM42.5 22.642h6.841a2 2 0 011.998 1.998v.06h-8.839v-2.058zm0 9.808v-5.933h8.07l1.483 5.933h-9.553zM16.407 51.824a3.94 3.94 0 01-3.935-3.935 3.94 3.94 0 013.935-3.936 3.94 3.94 0 013.935 3.936 3.94 3.94 0 01-3.935 3.935zm31.967 0a3.94 3.94 0 01-3.936-3.935 3.94 3.94 0 013.936-3.936 3.94 3.94 0 013.935 3.936 3.94 3.94 0 01-3.935 3.935zm7.81-11.624h-1.03a1.03 1.03 0 01-1.029-1.03v-1.029h2.059V40.2z" fill="#7AC751"/><path d="M16.407 46.012a1.879 1.879 0 00-1.876 1.877c0 1.034.841 1.876 1.876 1.876a1.879 1.879 0 001.877-1.876 1.879 1.879 0 00-1.877-1.877zM48.373 46.012a1.879 1.879 0 00-1.876 1.877c0 1.034.842 1.876 1.876 1.876a1.879 1.879 0 001.877-1.876 1.879 1.879 0 00-1.877-1.877zM37.718 42.137H24.157a.908.908 0 100 1.816h13.561a.908.908 0 000-1.816zM14.47 38.262H2.846a.908.908 0 000 1.817H14.47a.908.908 0 000-1.817zM14.47 24.7h-3.875a.908.908 0 00-.908.909v7.75a.908.908 0 101.816 0V30.39h1.998a.908.908 0 000-1.816h-1.998v-2.058h2.967a.908.908 0 000-1.817zM21.616 30.817a3.33 3.33 0 001.511-2.787 3.334 3.334 0 00-3.33-3.33h-2.421a.908.908 0 00-.909.909v7.75a.908.908 0 101.817 0V31.36h1.512l1.667 2.502a.907.907 0 101.511-1.008l-1.358-2.037zm-1.819-1.273h-1.513v-3.027h1.513c.835 0 1.514.679 1.514 1.513 0 .835-.679 1.514-1.514 1.514zM29 32.45h-2.967v-2.062c.02.002.04.004.06.004h1.938a.908.908 0 000-1.817h-1.937l-.06.003v-2.061H29a.908.908 0 000-1.817h-3.875a.908.908 0 00-.908.909v7.75c0 .5.406.907.908.907H29a.908.908 0 000-1.816zM35.781 32.45h-2.967v-2.058h1.03a.908.908 0 000-1.817h-1.03v-2.058h2.967a.908.908 0 000-1.817h-3.875a.908.908 0 00-.908.909v7.75c0 .5.407.907.908.907h3.875a.908.908 0 000-1.816z" fill="#7AC751"/></svg><svg fill="none" viewBox="0 0 60 60" id="adv-2" xmlns="http://www.w3.org/2000/svg"><mask id="ba" maskUnits="userSpaceOnUse" x="0" y="0" width="60" height="60" fill="#000"><path fill="#fff" d="M0 0h60v60H0z"/><path d="M7.425 18.725a2.892 2.892 0 00-1.592 2.573v6.767c0 1.068.866 1.933 1.934 1.933v26.1a2.9 2.9 0 002.9 2.9h38.666a2.9 2.9 0 002.9-2.9v-26.1a1.933 1.933 0 001.934-1.933v-6.767a2.892 2.892 0 00-1.591-2.573c4.021-2.578 6.218-7.391 6.341-7.667a.967.967 0 00-.884-1.36h-3.866V5.832a.967.967 0 00-1.587-.743l-3.227 2.695a15.703 15.703 0 00-6.4-6.316 3.76 3.76 0 00-2.014-.463C34.464 1.41 31.363 6.643 30 10.182c-1.369-3.535-4.47-8.754-10.939-9.158-.7-.04-1.4.119-2.014.458a15.71 15.71 0 00-6.393 6.301L7.42 5.088a.967.967 0 00-1.586.744v3.866H1.967a.967.967 0 00-.884 1.36c.123.276 2.32 5.09 6.342 7.667zm15.808 1.607v7.733H7.768v-6.767c0-.533.433-.966.966-.966h14.5zm1.866-5.688a13.831 13.831 0 01-4.465-7.434c3.054 1.338 4.65 4.981 5.228 6.603a4.853 4.853 0 00-.763.83zm1.035 2.788a2.9 2.9 0 012.9-2.9h1.933a2.9 2.9 0 012.9 2.9v.966h-7.733v-.966zm8.7 10.633h-9.667v-7.733h9.666v7.733zm-.696-14.252c.58-1.622 2.175-5.265 5.228-6.603a13.823 13.823 0 01-4.465 7.434 4.853 4.853 0 00-.763-.83zM9.7 56.098v-26.1h15.467v27.067h-14.5a.967.967 0 01-.967-.967zm17.4.967V29.998h5.8v27.067h-5.8zm23.2-.967a.967.967 0 01-.966.967h-14.5V29.998H50.3v26.1zm.967-35.766c.534 0 .966.433.966.966v6.767H36.767v-7.733h14.5zm1.933-8.7h3.233c-1.344 2.313-4.519 6.766-9.033 6.766h-2.165a20.703 20.703 0 004.284-4.785 4.801 4.801 0 00.593-3.944l2.121-1.77v2.766c0 .534.433.967.967.967zm-12.14-8.7c.34-.015.678.066.974.234 1.425.773 4.88 2.982 6.18 6.877a2.893 2.893 0 01-.313 2.514c-1.08 1.652-3.331 4.576-6.369 5.841H35.8v-.966c0-.322-.032-.643-.096-.958 3.963-2.803 5.337-7.683 5.751-9.729a1.43 1.43 0 00-.435-1.341 1.455 1.455 0 00-1.397-.336c-4.204 1.184-6.33 5.466-7.195 7.782a4.776 4.776 0 00-1.228-.227c.714-2.673 3.144-9.268 9.86-9.691zm-29.273 7.125c1.296-3.89 4.753-6.1 6.178-6.87a1.85 1.85 0 01.976-.234c6.71.42 9.14 6.995 9.86 9.667a4.77 4.77 0 00-1.227.227c-.864-2.32-2.991-6.598-7.195-7.782a1.463 1.463 0 00-1.397.336c-.37.34-.534.85-.432 1.341.409 2.049 1.784 6.931 5.747 9.732a4.809 4.809 0 00-.097.958v.966h-5.732c-3.037-1.263-5.29-4.184-6.369-5.835a2.883 2.883 0 01-.312-2.506zM6.8 11.632a.967.967 0 00.967-.967v-2.77l2.126 1.77a4.8 4.8 0 00.59 3.955 20.669 20.669 0 004.28 4.778H12.6c-4.502 0-7.681-4.452-9.03-6.766H6.8z"/></mask><path d="M7.425 18.725a2.892 2.892 0 00-1.592 2.573v6.767c0 1.068.866 1.933 1.934 1.933v26.1a2.9 2.9 0 002.9 2.9h38.666a2.9 2.9 0 002.9-2.9v-26.1a1.933 1.933 0 001.934-1.933v-6.767a2.892 2.892 0 00-1.591-2.573c4.021-2.578 6.218-7.391 6.341-7.667a.967.967 0 00-.884-1.36h-3.866V5.832a.967.967 0 00-1.587-.743l-3.227 2.695a15.703 15.703 0 00-6.4-6.316 3.76 3.76 0 00-2.014-.463C34.464 1.41 31.363 6.643 30 10.182c-1.369-3.535-4.47-8.754-10.939-9.158-.7-.04-1.4.119-2.014.458a15.71 15.71 0 00-6.393 6.301L7.42 5.088a.967.967 0 00-1.586.744v3.866H1.967a.967.967 0 00-.884 1.36c.123.276 2.32 5.09 6.342 7.667zm15.808 1.607v7.733H7.768v-6.767c0-.533.433-.966.966-.966h14.5zm1.866-5.688a13.831 13.831 0 01-4.465-7.434c3.054 1.338 4.65 4.981 5.228 6.603a4.853 4.853 0 00-.763.83zm1.035 2.788a2.9 2.9 0 012.9-2.9h1.933a2.9 2.9 0 012.9 2.9v.966h-7.733v-.966zm8.7 10.633h-9.667v-7.733h9.666v7.733zm-.696-14.252c.58-1.622 2.175-5.265 5.228-6.603a13.823 13.823 0 01-4.465 7.434 4.853 4.853 0 00-.763-.83zM9.7 56.098v-26.1h15.467v27.067h-14.5a.967.967 0 01-.967-.967zm17.4.967V29.998h5.8v27.067h-5.8zm23.2-.967a.967.967 0 01-.966.967h-14.5V29.998H50.3v26.1zm.967-35.766c.534 0 .966.433.966.966v6.767H36.767v-7.733h14.5zm1.933-8.7h3.233c-1.344 2.313-4.519 6.766-9.033 6.766h-2.165a20.703 20.703 0 004.284-4.785 4.801 4.801 0 00.593-3.944l2.121-1.77v2.766c0 .534.433.967.967.967zm-12.14-8.7c.34-.015.678.066.974.234 1.425.773 4.88 2.982 6.18 6.877a2.893 2.893 0 01-.313 2.514c-1.08 1.652-3.331 4.576-6.369 5.841H35.8v-.966c0-.322-.032-.643-.096-.958 3.963-2.803 5.337-7.683 5.751-9.729a1.43 1.43 0 00-.435-1.341 1.455 1.455 0 00-1.397-.336c-4.204 1.184-6.33 5.466-7.195 7.782a4.776 4.776 0 00-1.228-.227c.714-2.673 3.144-9.268 9.86-9.691zm-29.273 7.125c1.296-3.89 4.753-6.1 6.178-6.87a1.85 1.85 0 01.976-.234c6.71.42 9.14 6.995 9.86 9.667a4.77 4.77 0 00-1.227.227c-.864-2.32-2.991-6.598-7.195-7.782a1.463 1.463 0 00-1.397.336c-.37.34-.534.85-.432 1.341.409 2.049 1.784 6.931 5.747 9.732a4.809 4.809 0 00-.097.958v.966h-5.732c-3.037-1.263-5.29-4.184-6.369-5.835a2.883 2.883 0 01-.312-2.506zM6.8 11.632a.967.967 0 00.967-.967v-2.77l2.126 1.77a4.8 4.8 0 00.59 3.955 20.669 20.669 0 004.28 4.778H12.6c-4.502 0-7.681-4.452-9.03-6.766H6.8z" fill="#7AC751"/><path d="M7.425 18.725a2.892 2.892 0 00-1.592 2.573v6.767c0 1.068.866 1.933 1.934 1.933v26.1a2.9 2.9 0 002.9 2.9h38.666a2.9 2.9 0 002.9-2.9v-26.1a1.933 1.933 0 001.934-1.933v-6.767a2.892 2.892 0 00-1.591-2.573c4.021-2.578 6.218-7.391 6.341-7.667a.967.967 0 00-.884-1.36h-3.866V5.832a.967.967 0 00-1.587-.743l-3.227 2.695a15.703 15.703 0 00-6.4-6.316 3.76 3.76 0 00-2.014-.463C34.464 1.41 31.363 6.643 30 10.182c-1.369-3.535-4.47-8.754-10.939-9.158-.7-.04-1.4.119-2.014.458a15.71 15.71 0 00-6.393 6.301L7.42 5.088a.967.967 0 00-1.586.744v3.866H1.967a.967.967 0 00-.884 1.36c.123.276 2.32 5.09 6.342 7.667v0zm15.808 1.607v7.733H7.768v-6.767c0-.533.433-.966.966-.966h14.5zm1.866-5.688a13.831 13.831 0 01-4.465-7.434c3.054 1.338 4.65 4.981 5.228 6.603a4.853 4.853 0 00-.763.83zm1.035 2.788a2.9 2.9 0 012.9-2.9h1.933a2.9 2.9 0 012.9 2.9v.966h-7.733v-.966zm8.7 10.633h-9.667v-7.733h9.666v7.733zm-.696-14.252c.58-1.622 2.175-5.265 5.228-6.603a13.823 13.823 0 01-4.465 7.434 4.853 4.853 0 00-.763-.83zM9.7 56.098v-26.1h15.467v27.067h-14.5a.967.967 0 01-.967-.967zm17.4.967V29.998h5.8v27.067h-5.8zm23.2-.967a.967.967 0 01-.966.967h-14.5V29.998H50.3v26.1zm.967-35.766c.534 0 .966.433.966.966v6.767H36.767v-7.733h14.5zm1.933-8.7h3.233c-1.344 2.313-4.519 6.766-9.033 6.766h-2.165a20.703 20.703 0 004.284-4.785 4.801 4.801 0 00.593-3.944l2.121-1.77v2.766c0 .534.433.967.967.967zm-12.14-8.7c.34-.015.678.066.974.234 1.425.773 4.88 2.982 6.18 6.877a2.893 2.893 0 01-.313 2.514c-1.08 1.652-3.331 4.576-6.369 5.841H35.8v-.966c0-.322-.032-.643-.096-.958 3.963-2.803 5.337-7.683 5.751-9.729a1.43 1.43 0 00-.435-1.341 1.455 1.455 0 00-1.397-.336c-4.204 1.184-6.33 5.466-7.195 7.782a4.776 4.776 0 00-1.228-.227c.714-2.673 3.144-9.268 9.86-9.691v0zm-29.273 7.125c1.296-3.89 4.753-6.1 6.178-6.87a1.85 1.85 0 01.976-.234c6.71.42 9.14 6.995 9.86 9.667a4.77 4.77 0 00-1.227.227c-.864-2.32-2.991-6.598-7.195-7.782a1.463 1.463 0 00-1.397.336c-.37.34-.534.85-.432 1.341.409 2.049 1.784 6.931 5.747 9.732a4.809 4.809 0 00-.097.958v.966h-5.732c-3.037-1.263-5.29-4.184-6.369-5.835a2.883 2.883 0 01-.312-2.506zM6.8 11.632a.967.967 0 00.967-.967v-2.77l2.126 1.77a4.8 4.8 0 00.59 3.955 20.669 20.669 0 004.28 4.778H12.6c-4.502 0-7.681-4.452-9.03-6.766H6.8z" stroke="#7AC751" stroke-width=".5" mask="url(#ba)"/><path d="M12.6 31.806c-.603 0-1.092.489-1.092 1.092v1.933a1.092 1.092 0 102.184 0v-1.933c0-.603-.489-1.092-1.092-1.092zM12.6 37.606c-.603 0-1.092.489-1.092 1.092v15.466a1.092 1.092 0 102.184 0V38.698c0-.603-.489-1.092-1.092-1.092zM47.4 35.923c.603 0 1.092-.49 1.092-1.092v-1.933a1.092 1.092 0 00-2.183 0v1.933c0 .603.488 1.092 1.091 1.092zM47.4 55.256c.603 0 1.092-.489 1.092-1.092V38.698a1.092 1.092 0 00-2.183 0v15.466c0 .603.488 1.092 1.091 1.092z" fill="#7AC751" stroke="#7AC751" stroke-width=".25"/></svg><svg fill="none" viewBox="0 0 58 58" id="adv-3" xmlns="http://www.w3.org/2000/svg"><g clip-path="url(#cclip0_2_212)" fill="#7AC751"><path d="M55.364 29.243v-8.151c0-2.765-2.144-5.013-4.853-5.23L42.94 2.638a5.21 5.21 0 00-3.19-2.46 5.18 5.18 0 00-3.968.531L9.831 15.82H5.274A5.278 5.278 0 000 21.09v31.636A5.278 5.278 0 005.274 58H50.09a5.278 5.278 0 005.273-5.273v-8.151C56.894 44.03 58 42.58 58 40.863v-7.91c0-1.715-1.105-3.165-2.636-3.71zM47.447 15.82H35.958l8.617-5.017 2.872 5.017zm-4.182-7.305L30.72 15.82h-5.204l16.45-9.577 1.3 2.272zM37.11 2.99a2.55 2.55 0 011.958-.264c.674.18 1.235.615 1.584 1.224l.002.005-20.379 11.865h-5.204l22.04-12.83zm15.617 49.738a2.64 2.64 0 01-2.636 2.637H5.274a2.64 2.64 0 01-2.637-2.637V21.092a2.64 2.64 0 012.637-2.637H50.09a2.64 2.64 0 012.636 2.637V29h-7.909c-4.36 0-7.909 3.548-7.909 7.91 0 4.36 3.548 7.908 7.91 7.908h7.908v7.91zm2.637-11.863a1.32 1.32 0 01-1.318 1.318h-9.228a5.278 5.278 0 01-5.272-5.273 5.278 5.278 0 015.272-5.272h9.228c.727 0 1.318.59 1.318 1.318v7.909z"/><path d="M44.818 34.273a2.64 2.64 0 00-2.636 2.636 2.64 2.64 0 002.636 2.637 2.64 2.64 0 002.636-2.636 2.64 2.64 0 00-2.636-2.637z"/></g><defs><clipPath id="cclip0_2_212"><path fill="#fff" d="M0 0h58v58H0z"/></clipPath></defs></svg><svg fill="none" viewBox="0 0 58 58" id="adv-4" xmlns="http://www.w3.org/2000/svg"><path d="M49.96 23.975h-.143v-3.517C49.817 9.159 40.658 0 29.36 0 18.061 0 8.901 9.16 8.901 20.458v3.517h-.86c-3.16 0-5.6 2.8-5.6 6.03v8.973a5.67 5.67 0 005.6 5.814h5.31a1.364 1.364 0 001.293-1.508V25.699c0-.861-.502-1.723-1.292-1.723h-1.58v-3.517c0-9.713 7.875-17.587 17.587-17.587 9.713 0 17.587 7.874 17.587 17.587v3.517h-1.58c-.789 0-1.291.861-1.291 1.723v17.587a1.364 1.364 0 001.292 1.507h1.65l-.143.215a11.341 11.341 0 01-9.116 4.522 7.106 7.106 0 00-14.07 1.364A7.178 7.178 0 0030.867 58a7.394 7.394 0 005.168-2.225 6.318 6.318 0 001.723-3.446 14.213 14.213 0 0011.413-5.67l1.364-2.01c3.087-.216 5.025-2.154 5.025-4.954v-8.973c0-3.086-2.297-6.747-5.6-6.747zM11.774 41.921H8.04a2.8 2.8 0 01-2.728-2.943v-8.973c0-1.651 1.149-3.159 2.728-3.159h3.733v15.075zm22.18 11.844a4.235 4.235 0 01-3.086 1.364 4.379 4.379 0 01-4.307-4.235 4.235 4.235 0 118.47-.004v.004a3.805 3.805 0 01-1.077 2.87zm18.735-14.07c0 1.939-1.866 2.226-2.727 2.226h-3.015V26.846h3.015c1.579 0 2.727 2.226 2.727 3.877v8.973z" fill="#7AC751"/></svg><svg fill="none" viewBox="0 0 24 24" id="basket" xmlns="http://www.w3.org/2000/svg"><path d="M21 6h-3A6 6 0 106 6H3a3 3 0 00-3 3v10a5.006 5.006 0 005 5h14a5.006 5.006 0 005-5V9a3 3 0 00-3-3zm-9-4a4 4 0 014 4H8a4 4 0 014-4zm10 17a3 3 0 01-3 3H5a3 3 0 01-3-3V9a1 1 0 011-1h3v2a1 1 0 102 0V8h8v2a1 1 0 002 0V8h3a1 1 0 011 1v10z" fill="#555"/></svg><svg fill="none" viewBox="0 0 8 5" id="categories-chevron" xmlns="http://www.w3.org/2000/svg"><path d="M.694.212a.3.3 0 01.424 0L3.643 2.73a.3.3 0 00.424 0L6.592.211a.3.3 0 01.424 0l.482.483a.3.3 0 010 .424l-3.43 3.43a.3.3 0 01-.425 0l-3.43-3.43a.3.3 0 010-.424L.694.212z" fill="#555"/></svg><svg fill="none" viewBox="0 0 14 14" id="coupon" xmlns="http://www.w3.org/2000/svg"><path fill-rule="evenodd" clip-rule="evenodd" d="M6.182.465c.519 0 1.016.208 1.383.58l5.576 5.644a1.98 1.98 0 01.573 1.4 1.998 1.998 0 01-.573 1.4l-3.66 3.705a1.953 1.953 0 01-1.383.58 1.935 1.935 0 01-1.383-.58L1.138 7.549a1.98 1.98 0 01-.572-1.4V2.445c0-.525.206-1.028.572-1.4.367-.37.864-.579 1.383-.579h3.661zm0 1.33H2.521a.636.636 0 00-.453.19.652.652 0 00-.187.459V6.15c0 .171.067.336.187.458l5.577 5.645c.25.253.656.253.906 0l3.66-3.706a.649.649 0 00.14-.706.649.649 0 00-.14-.21L6.636 1.985a.64.64 0 00-.454-.19h.001zM4.51 3.128c.349 0 .683.14.93.39a1.34 1.34 0 010 1.882 1.307 1.307 0 01-1.86 0 1.34 1.34 0 010-1.882c.247-.25.582-.39.93-.39z" fill="#7AC751"/></svg><svg fill="none" viewBox="0 0 24 38" id="customer-arrow" xmlns="http://www.w3.org/2000/svg"><path fill-rule="evenodd" clip-rule="evenodd" d="M23.092 34.241a1 1 0 000-1.413L10 19.706a1 1 0 010-1.412L23.093 5.172a1 1 0 00-.001-1.413L20.04.707a1 1 0 00-1.414 0L1.04 18.293a1 1 0 000 1.414l17.586 17.586a1 1 0 001.414 0l3.052-3.052z" fill="#CCC"/></svg><svg fill="none" viewBox="0 0 10 18" id="facebook" xmlns="http://www.w3.org/2000/svg"><path d="M2.966 17.795V9.843H.863V6.98h2.103V4.534C2.966 2.612 4.208.848 7.07.848c1.159 0 2.016.11 2.016.11l-.068 2.674s-.874-.008-1.827-.008c-1.032 0-1.198.476-1.198 1.265v2.09H9.1l-.135 2.864H5.993v7.952H2.966z" fill="#555"/></svg><svg fill="none" viewBox="0 0 17 17" id="instagram" xmlns="http://www.w3.org/2000/svg"><path d="M8.074 6.06A2.69 2.69 0 005.39 8.746a2.69 2.69 0 002.684 2.685 2.69 2.69 0 002.685-2.685 2.69 2.69 0 00-2.685-2.684zm8.052 2.685c0-1.112.01-2.213-.053-3.323-.062-1.289-.356-2.433-1.299-3.375C13.83 1.102 12.688.81 11.4.748 10.288.686 9.186.696 8.076.696c-1.111 0-2.213-.01-3.323.052-1.288.062-2.432.356-3.375 1.299C.434 2.991.142 4.133.08 5.422.017 6.534.027 7.635.027 8.745c0 1.11-.01 2.213.052 3.323.063 1.289.357 2.433 1.3 3.375.944.945 2.086 1.237 3.374 1.3 1.112.062 2.214.052 3.323.052 1.112 0 2.214.01 3.323-.053 1.29-.062 2.433-.356 3.376-1.299.944-.944 1.236-2.086 1.298-3.375.065-1.11.053-2.211.053-3.323zm-8.052 4.13a4.125 4.125 0 01-4.13-4.13 4.125 4.125 0 014.13-4.13 4.125 4.125 0 014.13 4.13 4.125 4.125 0 01-4.13 4.13zm4.3-7.465a.963.963 0 110-1.93.963.963 0 110 1.93z" fill="#555"/></svg><svg fill="none" viewBox="0 0 147 39" id="logo" xmlns="http://www.w3.org/2000/svg"><path d="M39.448 30a.555.555 0 01-.408-.168.555.555 0 01-.168-.408V13.8a.64.64 0 01.144-.432.585.585 0 01.432-.168h10.416c.176 0 .32.056.432.168a.585.585 0 01.168.432v1.68c0 .176-.056.32-.168.432a.64.64 0 01-.432.144H42.16v4.56h7.224c.176 0 .32.056.432.168a.585.585 0 01.168.432v1.68c0 .176-.056.32-.168.432a.64.64 0 01-.432.144H42.16v5.952c0 .176-.056.32-.168.432a.64.64 0 01-.432.144h-2.112zm17.995.24c-1.472 0-2.632-.48-3.48-1.44-.848-.976-1.272-2.296-1.272-3.96v-6.744c0-.16.056-.296.168-.408a.555.555 0 01.408-.168h2.112c.176 0 .312.056.408.168a.508.508 0 01.168.408v6.6c0 1.984.872 2.976 2.616 2.976.832 0 1.488-.264 1.968-.792.496-.528.744-1.256.744-2.184v-6.6c0-.16.056-.296.168-.408a.555.555 0 01.408-.168h2.112c.176 0 .312.056.408.168a.508.508 0 01.168.408v11.328c0 .16-.056.296-.168.408a.508.508 0 01-.408.168h-1.944a.555.555 0 01-.408-.168.555.555 0 01-.168-.408v-.984c-.896 1.2-2.232 1.8-4.008 1.8zm10.85-.24a.555.555 0 01-.408-.168.555.555 0 01-.168-.408V18.12c0-.16.056-.296.168-.408a.523.523 0 01.408-.192h1.944c.176 0 .32.056.432.168a.585.585 0 01.168.432v.984a3.807 3.807 0 011.44-1.176c.592-.272 1.264-.408 2.016-.408h.984c.176 0 .312.056.408.168a.508.508 0 01.168.408v1.728c0 .16-.056.296-.168.408a.508.508 0 01-.408.168h-1.872c-.752 0-1.344.216-1.776.648-.432.432-.648 1.024-.648 1.776v6.6c0 .16-.056.296-.168.408a.585.585 0 01-.432.168h-2.088zM78.3 30a.555.555 0 01-.408-.168.555.555 0 01-.168-.408V18.096c0-.16.056-.296.168-.408a.555.555 0 01.408-.168h1.968c.16 0 .296.056.408.168a.555.555 0 01.168.408v.984c.944-1.2 2.28-1.8 4.008-1.8 1.472 0 2.64.488 3.504 1.464.864.96 1.296 2.272 1.296 3.936v6.744c0 .16-.056.296-.168.408a.508.508 0 01-.408.168h-2.112a.555.555 0 01-.408-.168.555.555 0 01-.168-.408v-6.6c0-.944-.232-1.672-.696-2.184-.448-.528-1.104-.792-1.968-.792-.848 0-1.52.264-2.016.792-.48.528-.72 1.256-.72 2.184v6.6c0 .16-.056.296-.168.408a.508.508 0 01-.408.168H78.3zm14.88-14.544a.555.555 0 01-.408-.168.555.555 0 01-.168-.408v-1.728c0-.16.056-.296.168-.408a.555.555 0 01.408-.168h2.184c.16 0 .296.056.408.168a.523.523 0 01.192.408v1.728c0 .16-.056.296-.168.408a.585.585 0 01-.432.168h-2.184zM93.277 30a.555.555 0 01-.408-.168.555.555 0 01-.168-.408V18.096c0-.16.056-.296.168-.408a.555.555 0 01.408-.168h1.992c.176 0 .312.056.408.168a.508.508 0 01.168.408v11.328c0 .16-.056.296-.168.408a.508.508 0 01-.408.168h-1.992zm6.352 0a.555.555 0 01-.408-.168.555.555 0 01-.168-.408V13.536c0-.176.056-.312.168-.408a.555.555 0 01.408-.168h1.944c.176 0 .312.056.408.168a.508.508 0 01.168.408v8.208l4.032-3.816a3 3 0 00.24-.192.899.899 0 01.288-.168c.096-.032.216-.048.36-.048h2.232c.16 0 .288.048.384.144a.519.519 0 01.144.384c0 .144-.08.288-.24.432l-4.944 4.632 5.544 5.952c.16.16.24.296.24.408a.48.48 0 01-.168.384.488.488 0 01-.36.144h-2.28c-.224 0-.392-.024-.504-.072a2.812 2.812 0 01-.384-.336l-4.584-4.824v4.656c0 .16-.056.296-.168.408a.508.508 0 01-.408.168h-1.944zm13.076-14.544a.555.555 0 01-.408-.168.555.555 0 01-.168-.408v-1.728c0-.16.056-.296.168-.408a.555.555 0 01.408-.168h2.184c.16 0 .296.056.408.168a.523.523 0 01.192.408v1.728c0 .16-.056.296-.168.408a.585.585 0 01-.432.168h-2.184zM112.801 30a.555.555 0 01-.408-.168.555.555 0 01-.168-.408V18.096c0-.16.056-.296.168-.408a.555.555 0 01.408-.168h1.992c.176 0 .312.056.408.168a.508.508 0 01.168.408v11.328c0 .16-.056.296-.168.408a.508.508 0 01-.408.168h-1.992zm6.328 0a.555.555 0 01-.408-.168.555.555 0 01-.168-.408V18.096c0-.16.056-.296.168-.408a.555.555 0 01.408-.168h1.968c.16 0 .296.056.408.168a.555.555 0 01.168.408v.984c.944-1.2 2.28-1.8 4.008-1.8 1.472 0 2.64.488 3.504 1.464.864.96 1.296 2.272 1.296 3.936v6.744c0 .16-.056.296-.168.408a.508.508 0 01-.408.168h-2.112a.555.555 0 01-.408-.168.555.555 0 01-.168-.408v-6.6c0-.944-.232-1.672-.696-2.184-.448-.528-1.104-.792-1.968-.792-.848 0-1.52.264-2.016.792-.48.528-.72 1.256-.72 2.184v6.6c0 .16-.056.296-.168.408a.508.508 0 01-.408.168h-2.112zm20.04 5.28c-1.424 0-2.576-.24-3.456-.72-.88-.464-1.504-1-1.872-1.608-.368-.608-.552-1.128-.552-1.56 0-.144.056-.272.168-.384a.611.611 0 01.408-.168h2.088c.144 0 .264.032.36.096.112.08.2.216.264.408.16.432.416.792.768 1.08.368.304.936.456 1.704.456.96 0 1.664-.216 2.112-.648.464-.432.696-1.176.696-2.232v-1.632c-.88 1.04-2.112 1.56-3.696 1.56-1.664 0-2.92-.512-3.768-1.536-.832-1.024-1.28-2.4-1.344-4.128l-.024-.648.024-.648c.064-1.696.52-3.064 1.368-4.104.848-1.056 2.096-1.584 3.744-1.584.848 0 1.592.16 2.232.48.64.32 1.176.76 1.608 1.32v-.96c0-.176.056-.32.168-.432a.555.555 0 01.408-.168h1.944c.16 0 .296.064.408.192a.555.555 0 01.168.408l.024 11.568c0 1.776-.496 3.152-1.488 4.128s-2.48 1.464-4.464 1.464zm-.12-7.896c.912 0 1.592-.288 2.04-.864.464-.576.72-1.28.768-2.112.016-.128.024-.392.024-.792a7.7 7.7 0 00-.024-.768c-.048-.848-.304-1.56-.768-2.136-.448-.576-1.128-.864-2.04-.864-1.728 0-2.64 1.064-2.736 3.192l-.024.576c0 1.136.2 2.048.6 2.736.416.688 1.136 1.032 2.16 1.032z" fill="#555"/><path d="M5.97 6.946c.645 0 1.171-.526 1.171-1.171S6.615 4.603 5.97 4.603a1.172 1.172 0 100 2.343zM9.596 24.783v2.25a10.674 10.674 0 016.298-2.048c2.292 0 4.473.725 6.297 2.048v-2.25c0-1.889.948-3.558 2.387-4.563a4.498 4.498 0 00-4.485-4.265h-8.399A4.498 4.498 0 007.21 20.22a5.565 5.565 0 012.386 4.563zM22.822 12.53H8.915v1.897h13.907V12.53z" fill="#85B839"/><path d="M22.191 29.026a9.157 9.157 0 00-6.297-2.498c-2.361 0-4.582.89-6.298 2.498v2.055h12.595v-2.055zM25.551 6.946c.645 0 1.172-.526 1.172-1.171s-.527-1.172-1.172-1.172a1.172 1.172 0 000 2.343zM15.912 3.778a1.89 1.89 0 001.889-1.89A1.89 1.89 0 0015.91 0a1.89 1.89 0 00-1.888 1.889 1.89 1.89 0 001.889 1.889z" fill="#85B839"/><path d="M27.76 20.757a4.03 4.03 0 00-4.026 4.026v7.837H8.054v-7.837a4.03 4.03 0 00-4.027-4.026A4.03 4.03 0 000 24.783a4.03 4.03 0 004.027 4.027h.771v7.069h22.191v-7.07h.772a4.03 4.03 0 004.026-4.026 4.03 4.03 0 00-4.026-4.026zM4.028 26.034a1.252 1.252 0 11.001-2.5 1.252 1.252 0 01-.001 2.5zm23.734 0a1.25 1.25 0 01-1.251-1.25 1.25 1.25 0 112.502 0 1.25 1.25 0 01-1.251 1.25zM8.698 10.988h14.337a7.29 7.29 0 001.662-2.928 6.524 6.524 0 01-3.032.757 6.523 6.523 0 01-5.8-3.547c-1.085 2.102-3.277 3.547-5.8 3.547-1.071 0-2.106-.26-3.028-.742a7.392 7.392 0 001.661 2.913zM9.596 37.422H8.053v1.543h1.543v-1.543zM23.734 37.422h-1.543v1.543h1.543v-1.543z" fill="#85B839"/></svg><svg fill="none" viewBox="0 0 26 26" id="notify" xmlns="http://www.w3.org/2000/svg"><path clip-rule="evenodd" d="M13 19.335c6.11 0 8.935-.784 9.208-3.93 0-3.143-1.97-2.94-1.97-6.798 0-3.012-2.856-6.44-7.238-6.44-4.382 0-7.238 3.428-7.238 6.44 0 3.857-1.97 3.655-1.97 6.799.274 3.157 3.1 3.929 9.208 3.929z" stroke="#555" stroke-width="2" stroke-linecap="round" stroke-linejoin="round"/><path d="M15.588 22.596c-1.478 1.64-3.783 1.66-5.275 0" stroke="#555" stroke-width="2" stroke-linecap="round" stroke-linejoin="round"/></svg><svg fill="none" viewBox="0 0 14 18" id="pinterset" xmlns="http://www.w3.org/2000/svg"><path d="M.921 6.927c0-.733.128-1.425.38-2.071.242-.628.6-1.204 1.056-1.697a7.17 7.17 0 011.549-1.252 7.075 7.075 0 011.885-.795A8.07 8.07 0 017.85.847c1.073 0 2.07.227 2.997.68a5.67 5.67 0 012.252 1.972c.578.861.865 1.836.865 2.923 0 .652-.064 1.29-.195 1.913a7.793 7.793 0 01-.608 1.801 6.221 6.221 0 01-1.02 1.523 4.447 4.447 0 01-1.476 1.05c-.607.265-1.263.4-1.926.392-.46 0-.92-.108-1.374-.326-.454-.216-.78-.514-.976-.896-.069.265-.163.648-.288 1.148-.12.499-.202.82-.237.967a20.95 20.95 0 01-.21.722 4.88 4.88 0 01-.264.724l-.324.635c-.14.273-.297.536-.469.79-.17.246-.381.54-.633.88l-.14.05-.093-.102c-.101-1.067-.153-1.706-.153-1.917 0-.624.074-1.325.221-2.102.144-.777.372-1.754.678-2.928.306-1.174.482-1.864.529-2.069-.216-.44-.325-1.014-.325-1.72 0-.564.176-1.093.53-1.59.353-.495.8-.743 1.343-.743.415 0 .737.137.968.413.232.275.345.622.345 1.045 0 .448-.149 1.097-.448 1.946-.3.85-.449 1.483-.449 1.904 0 .426.153.783.458 1.063.301.28.7.432 1.11.423.373 0 .719-.085 1.04-.255.316-.166.59-.402.8-.69.457-.628.782-1.34.957-2.096.09-.397.16-.775.204-1.13.046-.357.066-.694.066-1.014 0-1.175-.373-2.09-1.114-2.746-.745-.655-1.715-.981-2.909-.981-1.357 0-2.492.439-3.4 1.32-.91.877-1.368 1.993-1.368 3.346 0 .299.045.587.131.866.084.278.175.5.274.663.098.161.19.318.274.463.085.145.13.249.13.311 0 .19-.05.438-.151.744-.105.306-.228.459-.377.459-.014 0-.073-.01-.174-.032a2.08 2.08 0 01-.922-.57 2.985 2.985 0 01-.621-.963 6.58 6.58 0 01-.332-1.1 4.6 4.6 0 01-.124-1.086z" fill="#555"/></svg><svg fill="none" viewBox="0 0 12 9" id="read-arrow" xmlns="http://www.w3.org/2000/svg"><path d="M11.388 2.982L8.878.21A.617.617 0 008.421 0a.617.617 0 00-.458.21.755.755 0 00-.19.505c0 .19.069.371.19.505l2.3 2.544h-8.66a.617.617 0 00-.458.21.755.755 0 00-.19.505c0 .19.068.371.19.506.12.134.286.209.457.209h8.7L7.964 7.779a.724.724 0 00-.14.232.78.78 0 00.14.78c.121.134.286.209.458.209a.617.617 0 00.457-.21l2.51-2.773c.364-.403.567-.949.567-1.518 0-.568-.204-1.114-.567-1.517z" fill="#757575"/></svg><svg fill="none" viewBox="0 0 16 16" id="search" xmlns="http://www.w3.org/2000/svg"><g clip-path="url(#oclip0_2_89)"><path d="M12.7 11.3c.9-1.2 1.4-2.6 1.4-4.2 0-3.9-3.1-7.1-7-7.1S0 3.2 0 7.1c0 3.9 3.2 7.1 7.1 7.1 1.6 0 3.1-.5 4.2-1.4l3 3c.2.2.5.3.7.3.2 0 .5-.1.7-.3.4-.4.4-1 0-1.4l-3-3.1zm-5.6.8c-2.8 0-5.1-2.2-5.1-5S4.3 2 7.1 2s5.1 2.3 5.1 5.1-2.3 5-5.1 5z" fill="#fff"/></g><defs><clipPath id="oclip0_2_89"><path fill="#fff" d="M0 0h16v16H0z"/></clipPath></defs></svg><svg viewBox="0 0 12 8" id="select" xmlns="http://www.w3.org/2000/svg"><path fill="#fff" d="M10.59.59L6 5.17 1.41.59 0 2l6 6 6-6z"/></svg><svg fill="none" viewBox="0 0 11 11" id="star-green" xmlns="http://www.w3.org/2000/svg"><path d="M3.626 3.858l.307-.043.143-.276 1.285-2.477s0 0 0 0l.002-.003h.001a.06.06 0 01.028-.007c.015 0 .026.004.03.007l.002.001h0l.002.003h0L6.711 3.54l.142.276.308.043 2.875.398h0l.008.001-2.065 1.914-.241.223.058.324.49 2.707a.058.058 0 01-.025.008c-.007.001-.016 0-.027-.005h0L5.662 8.142l-.269-.134-.268.134-2.572 1.286h-.002a.045.045 0 01-.025.006.056.056 0 01-.025-.008l.49-2.708.058-.324-.24-.223L.742 4.257h.008l2.875-.4zM8.288 9.44l.59-.106c.089.492-.456.859-.913.63l.323-.524z" fill="#fff" stroke="#7AC751" stroke-width="1.2"/></svg><svg fill="none" viewBox="0 0 12 11" id="star-grey" xmlns="http://www.w3.org/2000/svg"><path d="M4.043 3.857l.307-.042.143-.276 1.285-2.477s0 0 0 0l.002-.003.001-.001a.06.06 0 01.028-.006c.015 0 .025.004.03.007l.002.001h0l.002.003h0l1.284 2.476.143.276.308.042 2.875.399h0l.007.001-2.064 1.914-.242.223.059.323.49 2.708a.058.058 0 01-.025.008c-.007 0-.016 0-.027-.006h0L6.079 8.142l-.269-.134-.268.134L2.97 9.427l-.002.001a.045.045 0 01-.025.006.056.056 0 01-.025-.008l.49-2.709.058-.323-.24-.223L1.16 4.257l.008-.001h0l2.875-.399zM8.705 9.44l.59-.107c.089.492-.456.86-.913.631l.323-.524z" fill="#fff" stroke="#CCC" stroke-width="1.2"/></svg><svg fill="none" viewBox="0 0 18 15" id="twitter" xmlns="http://www.w3.org/2000/svg"><path d="M17.774 2.178a6.964 6.964 0 01-2 .538A3.464 3.464 0 0017.3.8a6.857 6.857 0 01-2.203.84A3.465 3.465 0 0012.56.541a3.472 3.472 0 00-3.473 3.475c0 .269.033.538.086.796a9.87 9.87 0 01-7.161-3.635 3.448 3.448 0 00-.473 1.754c0 1.205.613 2.268 1.548 2.894a3.503 3.503 0 01-1.57-.442v.042A3.474 3.474 0 004.3 8.836a3.679 3.679 0 01-.915.118 4.62 4.62 0 01-.655-.053 3.48 3.48 0 003.246 2.41 6.96 6.96 0 01-4.312 1.484c-.29 0-.56-.01-.839-.043a9.834 9.834 0 005.334 1.559c6.388 0 9.883-5.292 9.883-9.885 0-.15 0-.301-.01-.452a7.48 7.48 0 001.74-1.796z" fill="#555"/></svg><svg fill="none" viewBox="0 0 24 24" id="user" xmlns="http://www.w3.org/2000/svg"><path d="M15.618 11.128a6.15 6.15 0 002.536-4.974A6.16 6.16 0 0012 0a6.16 6.16 0 00-6.154 6.154c0 2.042 1 3.854 2.536 4.974-3.818 1.461-6.536 5.163-6.536 9.487A3.388 3.388 0 005.231 24h13.538a3.388 3.388 0 003.385-3.385c0-4.324-2.718-8.026-6.536-9.487zM7.692 6.154A4.313 4.313 0 0112 1.846a4.313 4.313 0 014.308 4.308A4.313 4.313 0 0112 10.462a4.313 4.313 0 01-4.308-4.308zm11.077 16H5.231a1.54 1.54 0 01-1.539-1.539c0-4.58 3.727-8.307 8.308-8.307 4.581 0 8.308 3.726 8.308 8.307a1.54 1.54 0 01-1.539 1.539z" fill="#555"/></svg></svg>